# xmcd
#
# Track frame offsets: 
#        150
#        10799
#        22426
#        31360
#        43822
#        55753
#        66109
#        77670
#        89622
#        100894
#        110273
#        122266
#        133417
#        150158
#        162052
#        170833
#        180933
#        191395
#        199200
#        210020
#        220678
#        231594
#        242939
#        253418
#        262327
#        276329
#        287616
#        299103
#
# Disc length: 4236 seconds
#
# Revision: 1
# Processed by: cddbd v1.5.2PL0 Copyright (c) Steve Scherf et al.
# Submitted via: ExactAudioCopy v0.99pb5
#
DISCID=a3108a1c
DTITLE=Various Artist - Mighty Instrumentals-R&B Style 1960 CD1
DYEAR=1960
DGENRE=R&B
TTITLE0=Jump Awhile - Don and Dewey
TTITLE1=Power House - B.B. King
TTITLE2=Bongo in the Congo - Preston Epps
TTITLE3=Nite-Lite Slop - Jim Conley
TTITLE4=Boogie Bayou Shuffle - Bill Parker
TTITLE5=Chico - Al Tousan
TTITLE6=Mudd - Roy Montrell
TTITLE7=Slim Jim(pt.1) - Jimmy Oliver
TTITLE8=Bloodhound (pt. 1) - Willie Wright
TTITLE9=Bloodhound (pt. 2) - Willie Wright
TTITLE10=Space Flight - Grant Green
TTITLE11=Shaggy Dog - Kid King
TTITLE12=Piano Tuner - Curley Hamner
TTITLE13=San-Ho-Zay - Freddie King
TTITLE14=Shank - Bo Diddley
TTITLE15=Last Round - Jimmy Liggins
TTITLE16=The Slide (pt. 2) - Googie Rene
TTITLE17=Red Hot Red - Young Guitar Red
TTITLE18=Doublemint - Ike Turner
TTITLE19=Dynamite - Earl Hooker
TTITLE20=Hurricane - Davey Cortez
TTITLE21=Surfin' Steel - Chuck Berry
TTITLE22=Cool Turkey - James Booker
TTITLE23=Hully Gully Twist - Bill Doggett
TTITLE24=Gully Hully - Buddy Guy
TTITLE25=Dim Lights - Skippy Brooks
TTITLE26=Low Society - Lowell Fulson
TTITLE27=Blue Gator - Willis Jackson
EXTD=
EXTT0=
EXTT1=
EXTT2=
EXTT3=
EXTT4=
EXTT5=
EXTT6=
EXTT7=
EXTT8=
EXTT9=
EXTT10=
EXTT11=
EXTT12=
EXTT13=
EXTT14=
EXTT15=
EXTT16=
EXTT17=
EXTT18=
EXTT19=
EXTT20=
EXTT21=
EXTT22=
EXTT23=
EXTT24=
EXTT25=
EXTT26=
EXTT27=
PLAYORDER=
